<?xml version="1.0" encoding="UTF-8"?>
<svg width="200px" height="35px" viewBox="0 0 200 35" version="1.1" xmlns="http://www.w3.org/2000/svg" xmlns:xlink="http://www.w3.org/1999/xlink">
    <!-- Generator: Sketch 51.1 (57501) - http://www.bohemiancoding.com/sketch -->
    <title>Group 6</title>
    <desc>Created with Sketch.</desc>
    <defs>
        <polygon id="path-1" points="0.11437194 0.15885208 146.198 0.15885208 146.198 34.9999023 0.11437194 34.9999023"></polygon>
    </defs>
    <g id="Page-1" stroke="none" stroke-width="1" fill="none" fill-rule="evenodd">
        <g id="Desktop" transform="translate(-412.000000, -495.000000)">
            <g id="Group-6" transform="translate(412.000000, 494.000000)">
                <path d="M8.1484,18.8125 C7.2664,18.8125 6.5364,19.5715 6.5364,20.4895 L6.5364,27.2105 C6.5364,28.1295 7.2664,28.8815 8.1484,28.8815 L39.7334,28.8815 C40.6274,28.8815 41.3524,28.1295 41.3524,27.2105 L41.3524,20.4895 C41.3524,19.5715 40.6274,18.8125 39.7334,18.8125 L8.1484,18.8125 Z M36.2664,7.6025 L4.3264,7.7545 C-0.1016,7.6235 -0.2376,1.3815 4.2724,1.3165 L39.7334,1.3665 C44.4334,1.2865 48.9204,5.9265 48.9444,11.0205 L48.9444,25.6645 C48.8134,31.2825 45.6614,35.6745 40.2434,35.5205 L10.1594,35.1705 C3.5974,35.3195 0.0654,30.1035 0.0004,25.6645 L0.0004,22.7415 C0.3314,16.9385 4.3554,13.1585 11.0174,12.3815 L40.9964,12.3815 C40.9774,9.2315 40.0304,7.5305 36.2664,7.6025 Z" id="Fill-1" fill="#ED3124"></path>
                <g id="Group-5" transform="translate(53.000000, 0.841600)">
                    <mask id="mask-2" fill="white">
                        <use xlink:href="#path-1"></use>
                    </mask>
                    <g id="Clip-4"></g>
                    <path d="M105.249,17.8059 C104.366,17.8059 103.644,18.5629 103.644,19.4829 L103.644,26.2029 C103.644,27.1229 104.366,27.8749 105.249,27.8749 L136.841,27.8749 C137.723,27.8749 138.444,27.1229 138.444,26.2029 L138.444,19.4829 C138.444,18.5629 137.723,17.8059 136.841,17.8059 L105.249,17.8059 Z M0.116,25.5159 L0.116,11.4279 C0.034,5.0259 3.045,-0.0751 10.181,0.2069 L46.702,0.2069 C49.862,0.1659 52.499,1.4549 54.597,4.0809 L71.489,23.8269 C72.692,24.7329 73.558,24.6919 74.696,23.7269 L91.469,3.9799 C93.466,1.7049 96.294,0.1489 99.417,0.1589 L136.235,0.4649 C142.423,1.2019 146.103,4.2829 146.151,10.7699 L146.198,25.5579 C146.215,29.5179 141.261,34.7209 136.739,34.7149 L109.172,34.5139 C100.501,34.6199 96.27,29.4389 96.353,24.5079 L96.353,22.6349 C96.169,17.6699 100.513,10.8769 110.066,11.0749 L138.599,10.9239 C138.309,7.8949 135.814,6.3699 133.064,6.6489 L101.93,6.7479 C99.796,6.7599 98.054,7.5099 96.696,8.9609 L75.868,33.6069 C73.96,35.4139 71.987,35.5139 70.239,33.6069 L49.114,9.1579 C47.815,7.7799 46.484,6.7049 44.439,6.7479 L12.137,6.6959 C9.144,6.6359 7.667,8.3439 7.71,11.0729 L7.763,23.7549 C7.704,26.8789 9.244,28.0589 12.688,28.1759 L36.84,27.9749 C40.088,28.0119 41.588,26.8379 41.616,24.6499 L41.616,21.4319 C41.569,17.9119 39.909,16.5319 37.243,16.4589 L27.571,16.3049 C21.359,16.5319 20.956,9.8419 27.571,9.9159 L38.145,9.9649 C43.84,9.8069 49.151,15.7249 49.21,20.7759 L49.21,24.4609 C49.227,29.5389 42.684,34.7559 37.942,34.6609 L12.534,34.6659 C4.443,34.7209 0.052,31.8699 0.116,25.5159 Z" id="Fill-3" fill="#ED3124" mask="url(#mask-2)"></path>
                </g>
            </g>
        </g>
    </g>
</svg>